<?xml version="1.0" encoding="iso-8859-1"?>
<!-- Generator: Adobe Illustrator 19.0.0, SVG Export Plug-In . SVG Version: 6.00 Build 0)  -->
<svg version="1.1" id="Capa_1" xmlns="http://www.w3.org/2000/svg" xmlns:xlink="http://www.w3.org/1999/xlink" x="0px" y="0px"
	 viewBox="0 0 480.007 480.007" style="enable-background:new 0 0 480.007 480.007;" xml:space="preserve">
<g>
	<g>
		<path d="M400.003,16.003c-4.418,0-8,3.582-8,8v30.344c-102.502-83.983-253.677-68.97-337.66,33.532
			c-35.152,42.903-54.354,96.66-54.34,152.124c-0.205,54.208,18.145,106.855,52,149.192c2.73,3.474,7.759,4.077,11.233,1.347
			c3.474-2.73,4.077-7.759,1.347-11.233c-0.017-0.022-0.035-0.044-0.052-0.065c-31.596-39.513-48.721-88.648-48.528-139.24
			C15.998,116.291,116.282,15.999,239.994,15.994c50.274-0.002,99.087,16.908,138.585,48.009h-26.576c-4.418,0-8,3.582-8,8
			s3.582,8,8,8h48h0.08c0.821-0.035,1.631-0.2,2.4-0.488c0.224-0.036,0.445-0.084,0.664-0.144c0.262-0.158,0.516-0.329,0.76-0.512
			c0.664-0.337,1.275-0.768,1.816-1.28l0.072-0.048c0.185-0.256,0.353-0.523,0.504-0.8c0.91-0.967,1.433-2.233,1.472-3.56v-0.008
			c0.106-0.38,0.183-0.768,0.232-1.16v-48C408.003,19.585,404.422,16.003,400.003,16.003z"/>
	</g>
</g>
<g>
	<g>
		<path d="M428.387,91.283c-2.783-3.432-7.821-3.957-11.253-1.174c-3.37,2.734-3.947,7.656-1.299,11.094
			c31.365,39.447,48.354,88.403,48.168,138.8c0.005,123.712-100.279,224.004-223.991,224.009
			c-50.274,0.002-99.087-16.908-138.585-48.009h26.576c4.418,0,8-3.582,8-8s-3.582-8-8-8h-48h-0.096
			c-0.693,0.047-1.376,0.187-2.032,0.416c-0.346,0.049-0.689,0.124-1.024,0.224c-0.2,0.08-0.352,0.264-0.544,0.36
			c-0.744,0.367-1.427,0.847-2.024,1.424l-0.072,0.048c-0.182,0.256-0.348,0.523-0.496,0.8c-0.452,0.536-0.829,1.13-1.12,1.768
			c-0.184,0.583-0.305,1.183-0.36,1.792c-0.107,0.383-0.184,0.773-0.232,1.168v48c0,4.418,3.582,8,8,8s8-3.582,8-8v-30.344
			c102.502,83.983,253.677,68.97,337.66-33.532c35.152-42.903,54.354-96.66,54.34-152.124
			C480.203,186.004,461.997,133.548,428.387,91.283z"/>
	</g>
</g>
<g>
	<g>
		<path d="M279.755,240.003c17.74-13.054,21.538-38.018,8.483-55.757c-7.54-10.245-19.515-16.279-32.235-16.243v-16
			c0-4.418-3.582-8-8-8s-8,3.582-8,8v16h-16v-16c0-4.418-3.582-8-8-8s-8,3.582-8,8v16h-24c-4.418,0-8,3.582-8,8s3.582,8,8,8h16v112
			h-16c-4.418,0-8,3.582-8,8s3.582,8,8,8h24v16c0,4.418,3.582,8,8,8s8-3.582,8-8v-16h16v16c0,4.418,3.582,8,8,8s8-3.582,8-8v-16
			c22.025,0.063,39.931-17.74,39.995-39.765C296.035,259.518,290.001,247.543,279.755,240.003z M216.003,184.003h40
			c13.255,0,24,10.745,24,24s-10.745,24-24,24h-40V184.003z M256.003,296.003h-40v-48h40c13.255,0,24,10.745,24,24
			S269.258,296.003,256.003,296.003z"/>
	</g>
</g>
<g>
	<g>
		<path d="M240.003,72.003c-92.784,0-168,75.216-168,168s75.216,168,168,168c92.74-0.106,167.894-75.26,168-168
			C408.003,147.219,332.787,72.003,240.003,72.003z M240.003,392.003c-83.947,0-152-68.053-152-152s68.053-152,152-152
			c83.909,0.093,151.907,68.091,152,152C392.003,323.951,323.951,392.003,240.003,392.003z"/>
	</g>
</g>
<g>
	<g>
		<g>
			<path d="M132.563,293.539c-3.3-6.606-5.978-13.505-8-20.608c-1.213-4.25-5.642-6.713-9.892-5.5
				c-4.25,1.213-6.713,5.642-5.5,9.892c2.307,8.056,5.354,15.882,9.104,23.376c1.358,2.717,4.137,4.429,7.173,4.422
				c1.231-0.006,2.445-0.294,3.546-0.846C132.945,302.296,134.543,297.489,132.563,293.539z"/>
			<path d="M125.475,305.123c-0.009,0-0.018-0.002-0.027-0.002c-0.01,0-0.02,0.002-0.029,0.002H125.475z"/>
			<path d="M113.323,259.915c4.392-0.422,7.613-4.319,7.2-8.712c-0.352-3.704-0.52-7.504-0.52-11.2s0.168-7.336,0.496-10.944
				c0.402-4.401-2.839-8.294-7.24-8.696c-4.401-0.402-8.294,2.839-8.696,7.24c-0.376,4.096-0.56,8.176-0.56,12.4
				s0.192,8.496,0.544,12.672c0.385,4.125,3.857,7.274,8,7.256C112.803,259.931,113.051,259.923,113.323,259.915z"/>
			<path d="M153.843,342.587c-0.006,0-0.011-0.001-0.017-0.001c-0.005,0-0.01,0.001-0.015,0.001H153.843z"/>
			<path d="M335.515,167.491c4.477,5.877,8.402,12.155,11.728,18.752c1.366,2.719,4.157,4.428,7.2,4.408h0.024
				c1.243-0.002,2.469-0.294,3.58-0.852c3.948-1.984,5.54-6.792,3.556-10.74c-3.785-7.482-8.255-14.598-13.352-21.256
				c-2.675-3.517-7.695-4.199-11.212-1.524C333.522,158.954,332.84,163.974,335.515,167.491z"/>
			<path d="M355.339,206.843c2.038,7.103,3.418,14.379,4.12,21.736c0.387,4.104,3.83,7.242,7.952,7.248
				c0.257,0.003,0.513-0.011,0.768-0.04c4.395-0.422,7.618-4.324,7.2-8.72c-0.792-8.339-2.354-16.588-4.664-24.64
				c-1.262-4.121-5.561-6.502-9.724-5.385C356.724,198.188,354.194,202.576,355.339,206.843z"/>
			<path d="M116.843,213.123c3.571-0.007,6.705-2.38,7.68-5.816c2.025-7.112,4.703-14.021,8-20.64
				c1.968-3.957,0.357-8.76-3.6-10.728c-3.957-1.968-8.76-0.357-10.728,3.6c-3.726,7.504-6.755,15.334-9.048,23.392
				c-0.203,0.714-0.306,1.452-0.306,2.194C108.842,209.544,112.425,213.124,116.843,213.123z"/>
			<path d="M144.307,312.331c-2.658-3.34-7.47-4.005-10.934-1.511c-3.586,2.582-4.399,7.581-1.818,11.167
				c5.057,6.675,10.715,12.871,16.904,18.512c1.465,1.342,3.38,2.086,5.367,2.087c2.245-0.003,4.386-0.95,5.899-2.61
				c2.977-3.265,2.743-8.325-0.522-11.302C153.754,323.689,148.768,318.219,144.307,312.331z"/>
			<path d="M137.783,171.051c2.501,0.001,4.859-1.168,6.372-3.16c4.454-5.903,9.44-11.385,14.896-16.376
				c3.097-2.96,3.312-7.834,0.489-11.055c-2.912-3.323-7.966-3.656-11.289-0.745c-6.176,5.651-11.82,11.855-16.864,18.536
				c-1.039,1.385-1.6,3.069-1.6,4.8C129.787,167.468,133.367,171.049,137.783,171.051z"/>
			<polygon points="137.787,171.051 137.783,171.051 137.779,171.051 			"/>
			<path d="M196.731,351.891c-6.888-2.684-13.516-5.994-19.8-9.888c-3.756-2.328-8.688-1.172-11.016,2.584
				c-2.328,3.755-1.172,8.688,2.584,11.016c7.105,4.416,14.604,8.166,22.4,11.2c0.926,0.359,1.911,0.543,2.904,0.544l0.032,0
				c3.298-0.002,6.257-2.027,7.452-5.1C202.889,358.129,200.849,353.493,196.731,351.891z"/>
			<path d="M321.115,328.331c-5.445,5-11.336,9.491-17.6,13.416c-2.333,1.464-3.748,4.025-3.747,6.779
				c0.002,4.418,3.585,7.999,8.003,7.997v0.032c1.497,0.003,2.965-0.418,4.232-1.216c7.099-4.451,13.773-9.547,19.936-15.224
				c3.254-2.989,3.469-8.05,0.48-11.304S324.369,325.342,321.115,328.331z"/>
			<path d="M302.899,137.835c6.291,3.89,12.209,8.351,17.68,13.328c1.475,1.336,3.394,2.075,5.384,2.072l-0.024,0.008
				c2.255,0.001,4.406-0.95,5.923-2.619c2.972-3.27,2.73-8.329-0.539-11.301c-6.193-5.628-12.888-10.678-20-15.088
				c-3.703-2.207-8.49-1.082-10.822,2.543C298.11,130.494,299.184,135.444,302.899,137.835z"/>
			<path d="M172.483,139.299c1.484,0.008,2.941-0.396,4.208-1.168c6.263-3.915,12.879-7.236,19.76-9.92
				c4.018-1.63,6.007-6.163,4.484-10.223c-1.552-4.137-6.163-6.233-10.3-4.681c-7.795,3.036-15.294,6.785-22.4,11.2
				c-2.353,1.464-3.78,4.042-3.773,6.813C164.474,135.738,168.065,139.311,172.483,139.299z"/>
			<path d="M368.215,243.447c-4.403-0.393-8.291,2.857-8.684,7.26c-0.656,7.359-1.995,14.641-4,21.752
				c-0.001,0.002-0.001,0.004-0.002,0.006c-1.195,4.254,1.284,8.671,5.538,9.866c0.709,0.196,1.441,0.295,2.176,0.296
				c3.582,0.003,6.73-2.377,7.704-5.824c2.265-8.067,3.781-16.326,4.528-24.672C375.869,247.728,372.618,243.84,368.215,243.447z"/>
			<path d="M358.335,289.543c-3.961-1.962-8.762-0.341-10.724,3.62c-3.281,6.624-7.167,12.931-11.608,18.84
				c-1.039,1.385-1.6,3.069-1.6,4.8c0,4.418,3.582,8,8,8c2.518,0,4.889-1.186,6.4-3.2c5.026-6.696,9.428-13.837,13.152-21.336
				C363.917,296.306,362.296,291.505,358.335,289.543z"/>
			<path d="M216.235,122.211c0.491,0,0.981-0.046,1.464-0.136c7.265-1.365,14.64-2.058,22.032-2.072c4.418,0,8-3.582,8-8
				s-3.582-8-8-8c-8.377,0.015-16.735,0.802-24.968,2.352c-3.753,0.722-6.471,3.996-6.489,7.818
				C208.253,118.591,211.817,122.19,216.235,122.211z"/>
			<path d="M240.003,360.003c-7.394,0.002-14.772-0.678-22.04-2.032c-4.345-0.811-8.525,2.055-9.336,6.4
				c-0.811,4.345,2.055,8.525,6.4,9.336c8.238,1.526,16.598,2.295,24.976,2.296h0.512c0.065,0,0.13-0.001,0.195-0.003
				c4.293-0.124,7.672-3.704,7.549-7.997C248.142,363.535,244.473,359.98,240.003,360.003z"/>
			<path d="M261.795,121.987c7.267,1.343,14.393,3.357,21.288,6.016c0.918,0.356,1.895,0.538,2.88,0.536
				c3.292-0.008,6.243-2.032,7.436-5.1c1.601-4.118-0.439-8.754-4.556-10.356c-7.819-3.02-15.902-5.307-24.144-6.832
				c-4.345-0.802-8.518,2.071-9.32,6.416C254.577,117.013,257.45,121.185,261.795,121.987z"/>
			<path d="M283.763,351.747c-6.881,2.697-13.996,4.751-21.256,6.136c-3.797,0.709-6.545,4.029-6.531,7.892
				c0.015,4.418,3.609,7.988,8.027,7.972c0.505,0,1.008-0.049,1.504-0.144c8.231-1.568,16.298-3.901,24.096-6.968
				c0.154-0.055,0.307-0.115,0.458-0.18c4.062-1.739,5.944-6.442,4.205-10.503C292.527,351.891,287.825,350.008,283.763,351.747z"/>
		</g>
	</g>
</g>
<g>
</g>
<g>
</g>
<g>
</g>
<g>
</g>
<g>
</g>
<g>
</g>
<g>
</g>
<g>
</g>
<g>
</g>
<g>
</g>
<g>
</g>
<g>
</g>
<g>
</g>
<g>
</g>
<g>
</g>
</svg>
